# xmcd CD database file
#
# Track frame offsets:
#	150
#	17708
#	38920
#	62152
#	84482
#	107429
#	128747
#	146224
#	171844
#	199597
#	229232
#
# Disc length: 4440 seconds
#
# Revision: 0
# Processed by: cddbd v1.5.1PL0 Copyright (c) Steve Scherf et al.
# Submitted via: CDex 1.51
#
DISCID=9211560b
DTITLE=桑山哲也 - ブルーミング
DYEAR=2004
DGENRE=Instrumental
TTITLE0=Blooming
TTITLE1=Frangile
TTITLE2=Agua de Beber
TTITLE3=A Whiter Shade of Pale
TTITLE4=Ayla
TTITLE5=Pedro
TTITLE6=Walts de Printemps
TTITLE7=They Long To Be
TTITLE8=Moon Drops
TTITLE9=Rondo
TTITLE10=data
EXTD=YEAR: 2004
EXTT0=
EXTT1=
EXTT2=
EXTT3=
EXTT4=
EXTT5=
EXTT6=
EXTT7=
EXTT8=
EXTT9=
EXTT10=
PLAYORDER=
